<svg width="116" height="116" viewBox="0 0 116 116" fill="none" xmlns="http://www.w3.org/2000/svg">
<path d="M115.2 57.6002C115.2 89.4118 89.4116 115.2 57.6 115.2C25.7884 115.2 0 89.4118 0 57.6002C0 25.7886 25.7884 0.000244141 57.6 0.000244141C89.4116 0.000244141 115.2 25.7886 115.2 57.6002Z" fill="#BAE6FD"/>
<path fill-rule="evenodd" clip-rule="evenodd" d="M57.6 111.6C87.4234 111.6 111.6 87.4236 111.6 57.6002C111.6 27.7768 87.4234 3.60024 57.6 3.60024C27.7766 3.60024 3.6 27.7768 3.6 57.6002C3.6 87.4236 27.7766 111.6 57.6 111.6ZM57.6 115.2C89.4116 115.2 115.2 89.4118 115.2 57.6002C115.2 25.7886 89.4116 0.000244141 57.6 0.000244141C25.7884 0.000244141 0 25.7886 0 57.6002C0 89.4118 25.7884 115.2 57.6 115.2Z" fill="white"/>
</svg>
